<svg xmlns="http://www.w3.org/2000/svg" xmlns:xlink="http://www.w3.org/1999/xlink" width="500" zoomAndPan="magnify" viewBox="0 0 375 149.999998" height="200" preserveAspectRatio="xMidYMid meet" version="1.0"><defs><g/><clipPath id="5847852d9e"><path d="M 41 53 L 102 53 L 102 134.757812 L 41 134.757812 Z M 41 53 " clip-rule="nonzero"/></clipPath><clipPath id="2ce0e35ff1"><path d="M 92 83 L 160.363281 83 L 160.363281 132 L 92 132 Z M 92 83 " clip-rule="nonzero"/></clipPath><clipPath id="603343dea5"><path d="M 39.390625 15 L 109 15 L 109 74 L 39.390625 74 Z M 39.390625 15 " clip-rule="nonzero"/></clipPath><clipPath id="bf362203f3"><path d="M 122 91 L 130 91 L 130 100 L 122 100 Z M 122 91 " clip-rule="nonzero"/></clipPath><clipPath id="b969d3f7c6"><path d="M 117.949219 81.355469 L 139.648438 87.273438 L 133.730469 108.972656 L 112.03125 103.054688 Z M 117.949219 81.355469 " clip-rule="nonzero"/></clipPath><clipPath id="d00402da3e"><path d="M 117.949219 81.355469 L 139.648438 87.273438 L 133.730469 108.972656 L 112.03125 103.054688 Z M 117.949219 81.355469 " clip-rule="nonzero"/></clipPath><clipPath id="28ab458589"><path d="M 124 83 L 138 83 L 138 94 L 124 94 Z M 124 83 " clip-rule="nonzero"/></clipPath><clipPath id="21266eb9fb"><path d="M 117.949219 81.355469 L 139.648438 87.273438 L 133.730469 108.972656 L 112.03125 103.054688 Z M 117.949219 81.355469 " clip-rule="nonzero"/></clipPath><clipPath id="2363337028"><path d="M 117.949219 81.355469 L 139.648438 87.273438 L 133.730469 108.972656 L 112.03125 103.054688 Z M 117.949219 81.355469 " clip-rule="nonzero"/></clipPath><clipPath id="c1afdbb917"><path d="M 114 84 L 124 84 L 124 97 L 114 97 Z M 114 84 " clip-rule="nonzero"/></clipPath><clipPath id="9f8fa76560"><path d="M 117.949219 81.355469 L 139.648438 87.273438 L 133.730469 108.972656 L 112.03125 103.054688 Z M 117.949219 81.355469 " clip-rule="nonzero"/></clipPath><clipPath id="47ea94f4ea"><path d="M 117.949219 81.355469 L 139.648438 87.273438 L 133.730469 108.972656 L 112.03125 103.054688 Z M 117.949219 81.355469 " clip-rule="nonzero"/></clipPath><clipPath id="28dfcda35a"><path d="M 114 97 L 128 97 L 128 107 L 114 107 Z M 114 97 " clip-rule="nonzero"/></clipPath><clipPath id="c205f4c04f"><path d="M 117.949219 81.355469 L 139.648438 87.273438 L 133.730469 108.972656 L 112.03125 103.054688 Z M 117.949219 81.355469 " clip-rule="nonzero"/></clipPath><clipPath id="5ba768317e"><path d="M 117.949219 81.355469 L 139.648438 87.273438 L 133.730469 108.972656 L 112.03125 103.054688 Z M 117.949219 81.355469 " clip-rule="nonzero"/></clipPath><clipPath id="13fb2aa10d"><path d="M 128 93 L 138 93 L 138 107 L 128 107 Z M 128 93 " clip-rule="nonzero"/></clipPath><clipPath id="767890410f"><path d="M 117.949219 81.355469 L 139.648438 87.273438 L 133.730469 108.972656 L 112.03125 103.054688 Z M 117.949219 81.355469 " clip-rule="nonzero"/></clipPath><clipPath id="b64b4c861b"><path d="M 117.949219 81.355469 L 139.648438 87.273438 L 133.730469 108.972656 L 112.03125 103.054688 Z M 117.949219 81.355469 " clip-rule="nonzero"/></clipPath><clipPath id="bf747be846"><path d="M 124 93 L 128 93 L 128 97 L 124 97 Z M 124 93 " clip-rule="nonzero"/></clipPath><clipPath id="9fd36b7962"><path d="M 117.949219 81.355469 L 139.648438 87.273438 L 133.730469 108.972656 L 112.03125 103.054688 Z M 117.949219 81.355469 " clip-rule="nonzero"/></clipPath><clipPath id="359e67da82"><path d="M 117.949219 81.355469 L 139.648438 87.273438 L 133.730469 108.972656 L 112.03125 103.054688 Z M 117.949219 81.355469 " clip-rule="nonzero"/></clipPath></defs><path fill="#d4131a" d="M 82.679688 82.066406 L 76.738281 80.554688 L 76.019531 86.648438 L 81.960938 88.152344 Z M 82.679688 82.066406 " fill-opacity="1" fill-rule="nonzero"/><path fill="#d4131a" d="M 76.269531 77.898438 L 75.882812 78.160156 L 76.140625 78.535156 L 79.5 76.226562 L 79.246094 75.851562 L 78.976562 76.035156 C 78.773438 76.171875 78.566406 76.25 78.359375 76.265625 C 78.152344 76.285156 77.914062 76.234375 77.632812 76.125 L 72.65625 74.167969 L 73.152344 71.179688 C 73.21875 70.820312 73.328125 70.5 73.488281 70.207031 C 73.648438 69.917969 73.832031 69.703125 74.039062 69.558594 L 74.277344 69.398438 L 74.015625 69.023438 L 70.949219 71.125 L 71.203125 71.5 L 71.414062 71.355469 C 71.667969 71.179688 71.875 71.09375 72.035156 71.09375 C 72.195312 71.09375 72.316406 71.148438 72.402344 71.269531 C 72.507812 71.421875 72.539062 71.644531 72.5 71.929688 L 71.746094 76.859375 L 69.375 73.394531 C 69.289062 73.265625 69.265625 73.136719 69.289062 73 C 69.320312 72.867188 69.40625 72.738281 69.558594 72.632812 L 70.285156 72.140625 L 70.03125 71.761719 L 66.621094 74.101562 L 66.882812 74.480469 L 67.433594 74.09375 C 67.652344 73.953125 67.828125 73.878906 67.960938 73.878906 C 68.097656 73.878906 68.210938 73.945312 68.289062 74.0625 L 72.371094 80.019531 C 72.449219 80.132812 72.464844 80.253906 72.433594 80.371094 C 72.402344 80.5 72.296875 80.621094 72.132812 80.730469 L 71.476562 81.179688 L 71.730469 81.554688 L 75.140625 79.214844 L 74.886719 78.839844 L 74.160156 79.335938 C 74.007812 79.4375 73.855469 79.484375 73.695312 79.476562 C 73.59375 79.46875 73.503906 79.40625 73.425781 79.292969 L 72.164062 77.457031 L 72.472656 75.40625 L 76.601562 77.019531 C 76.683594 77.050781 76.746094 77.105469 76.792969 77.167969 C 76.84375 77.242188 76.835938 77.328125 76.777344 77.441406 C 76.722656 77.554688 76.546875 77.703125 76.269531 77.898438 Z M 76.269531 77.898438 " fill-opacity="1" fill-rule="nonzero"/><g clip-path="url(#5847852d9e)"><path fill="#333333" d="M 100.5625 129.078125 L 64.648438 76.660156 C 63.210938 74.566406 63.746094 71.699219 65.847656 70.269531 L 80.898438 59.960938 L 74.285156 54.691406 C 72.296875 53.109375 69.40625 53.4375 67.828125 55.417969 L 42.375 87.359375 C 40.792969 89.347656 41.121094 92.238281 43.109375 93.820312 L 92.804688 133.414062 C 94.792969 134.996094 97.6875 134.667969 99.265625 132.6875 L 101.40625 130.003906 C 101.085938 129.734375 100.808594 129.429688 100.5625 129.078125 Z M 54.289062 91.960938 L 54.578125 91.59375 C 54.785156 91.328125 54.90625 91.136719 54.929688 91.007812 C 54.953125 90.890625 54.9375 90.800781 54.867188 90.746094 C 54.800781 90.699219 54.730469 90.664062 54.632812 90.65625 L 50.210938 90.324219 L 50.511719 92.382812 L 52.253906 93.773438 C 52.367188 93.859375 52.46875 93.890625 52.566406 93.867188 C 52.726562 93.828125 52.859375 93.742188 52.972656 93.597656 L 53.523438 92.910156 L 53.882812 93.199219 L 51.320312 96.421875 L 50.960938 96.136719 L 51.457031 95.511719 C 51.582031 95.355469 51.648438 95.210938 51.640625 95.082031 C 51.632812 94.953125 51.582031 94.851562 51.472656 94.761719 L 45.816406 90.257812 C 45.707031 90.171875 45.585938 90.148438 45.457031 90.179688 C 45.332031 90.210938 45.179688 90.339844 45.019531 90.539062 L 44.605469 91.066406 L 44.246094 90.777344 L 46.824219 87.542969 L 47.183594 87.832031 L 46.632812 88.519531 C 46.511719 88.660156 46.464844 88.804688 46.480469 88.949219 C 46.496094 89.09375 46.558594 89.203125 46.679688 89.300781 L 49.960938 91.917969 L 49.242188 86.984375 C 49.203125 86.695312 49.109375 86.496094 48.957031 86.386719 C 48.84375 86.296875 48.707031 86.273438 48.558594 86.328125 C 48.40625 86.378906 48.230469 86.519531 48.039062 86.761719 L 47.878906 86.960938 L 47.519531 86.671875 L 49.835938 83.765625 L 50.195312 84.054688 L 50.019531 84.277344 C 49.867188 84.46875 49.746094 84.734375 49.683594 85.058594 C 49.609375 85.386719 49.601562 85.730469 49.652344 86.089844 L 50.058594 89.09375 L 55.382812 89.5 C 55.679688 89.523438 55.925781 89.5 56.121094 89.421875 C 56.3125 89.347656 56.488281 89.210938 56.636719 89.019531 L 56.847656 88.765625 L 57.207031 89.054688 L 54.664062 92.246094 Z M 62.84375 99.578125 L 61.796875 100.886719 C 61.796875 100.886719 61.71875 99.859375 60.832031 98.84375 C 60.855469 99.324219 60.71875 99.800781 60.398438 100.210938 C 59.703125 101.078125 58.441406 101.222656 57.574219 100.527344 C 56.703125 99.832031 56.558594 98.5625 57.253906 97.703125 C 57.261719 97.695312 57.277344 97.675781 57.285156 97.667969 C 57.15625 97.605469 57.039062 97.535156 56.925781 97.445312 C 56.054688 96.75 55.910156 95.488281 56.605469 94.617188 C 57.300781 93.75 58.5625 93.605469 59.433594 94.300781 C 59.546875 94.386719 59.648438 94.492188 59.738281 94.59375 C 59.746094 94.585938 59.753906 94.570312 59.761719 94.554688 C 60.457031 93.683594 61.726562 93.539062 62.585938 94.234375 C 63.457031 94.929688 63.601562 96.199219 62.90625 97.0625 C 62.585938 97.460938 62.140625 97.710938 61.675781 97.789062 C 62.859375 98.429688 63.882812 98.269531 63.882812 98.269531 Z M 62.84375 99.578125 " fill-opacity="1" fill-rule="nonzero"/></g><path fill="#333333" d="M 118.992188 62.738281 C 120.867188 62.789062 122.769531 62.980469 124.679688 63.363281 C 120.109375 63.265625 115.679688 64.175781 111.636719 65.933594 C 108.234375 67.410156 105.121094 69.480469 102.445312 72.042969 C 99.265625 75.085938 96.703125 78.824219 95.027344 83.070312 C 94.355469 84.765625 93.820312 86.539062 93.445312 88.382812 C 93.070312 90.226562 92.886719 92.070312 92.847656 93.890625 C 92.75 98.460938 93.660156 102.890625 95.417969 106.925781 C 96.894531 110.328125 98.972656 113.441406 101.527344 116.117188 C 104.570312 119.296875 108.308594 121.859375 112.554688 123.535156 C 114.25 124.207031 116.019531 124.742188 117.867188 125.117188 C 119.710938 125.492188 121.554688 125.675781 123.375 125.714844 C 127.945312 125.8125 132.375 124.902344 136.417969 123.144531 C 139.820312 121.667969 142.933594 119.589844 145.609375 117.035156 C 148.789062 113.992188 151.351562 110.261719 153.027344 106.007812 C 153.699219 104.3125 154.234375 102.539062 154.609375 100.695312 C 154.984375 98.851562 155.167969 97.007812 155.207031 95.1875 C 155.304688 90.617188 154.394531 86.1875 152.636719 82.144531 C 151.160156 78.742188 149.089844 75.628906 146.527344 72.953125 C 146.160156 72.570312 145.785156 72.195312 145.394531 71.828125 L 155.4375 55.808594 L 150.265625 58.667969 C 150.335938 59.097656 150.335938 59.554688 150.25 60.007812 C 149.847656 61.996094 147.910156 63.289062 145.921875 62.890625 C 143.933594 62.492188 142.636719 60.550781 143.046875 58.5625 C 143.390625 56.871094 144.835938 55.6875 146.488281 55.617188 L 147.605469 47.789062 L 142.238281 51.75 C 142.773438 52.621094 142.996094 53.683594 142.78125 54.761719 C 142.328125 57.023438 140.128906 58.484375 137.871094 58.027344 C 135.609375 57.574219 134.15625 55.375 134.605469 53.117188 C 134.941406 51.457031 136.21875 50.226562 137.773438 49.875 L 135.347656 41.671875 L 129.933594 48.292969 C 131.226562 49.21875 131.9375 50.847656 131.601562 52.507812 C 131.144531 54.769531 128.949219 56.222656 126.691406 55.777344 C 124.429688 55.320312 122.976562 53.125 123.425781 50.863281 C 123.640625 49.785156 124.261719 48.890625 125.09375 48.300781 L 121.675781 42.574219 L 119.671875 50.226562 C 121.164062 50.929688 122.042969 52.582031 121.707031 54.273438 C 121.308594 56.261719 119.367188 57.558594 117.378906 57.148438 C 115.390625 56.75 114.097656 54.808594 114.496094 52.820312 C 114.589844 52.367188 114.765625 51.941406 115 51.574219 L 111.332031 46.933594 L 113.96875 63.011719 C 115.628906 62.804688 117.300781 62.699219 118.992188 62.738281 Z M 113.328125 68.472656 L 116.828125 73.726562 C 113.296875 74.957031 110.128906 77.066406 107.636719 79.835938 L 104.136719 74.582031 C 106.765625 71.972656 109.894531 69.894531 113.328125 68.472656 Z M 96.390625 88.980469 C 96.765625 87.128906 97.316406 85.355469 98.019531 83.679688 L 104.210938 84.925781 C 103.410156 86.5625 102.8125 88.324219 102.4375 90.195312 C 102.0625 92.0625 101.933594 93.925781 102.039062 95.746094 L 95.847656 94.5 C 95.839844 92.679688 96.015625 90.832031 96.390625 88.980469 Z M 104.074219 114.449219 C 101.453125 111.8125 99.378906 108.683594 97.964844 105.257812 L 103.21875 101.757812 C 104.449219 105.289062 106.558594 108.449219 109.328125 110.949219 Z M 123.992188 122.746094 C 122.171875 122.746094 120.324219 122.5625 118.472656 122.195312 C 116.621094 121.820312 114.847656 121.269531 113.171875 120.566406 L 114.417969 114.375 C 116.054688 115.175781 117.816406 115.773438 119.6875 116.15625 C 121.554688 116.53125 123.417969 116.660156 125.238281 116.554688 Z M 134.738281 120.621094 L 131.242188 115.367188 C 134.773438 114.136719 137.941406 112.027344 140.433594 109.257812 L 143.933594 114.511719 C 141.296875 117.132812 138.175781 119.207031 134.738281 120.621094 Z M 151.679688 100.113281 C 151.300781 101.964844 150.75 103.738281 150.050781 105.414062 L 143.859375 104.171875 C 144.660156 102.523438 145.257812 100.769531 145.632812 98.898438 C 146.007812 97.03125 146.136719 95.171875 146.03125 93.347656 L 152.222656 94.59375 C 152.230469 96.414062 152.054688 98.261719 151.679688 100.113281 Z M 143.996094 74.65625 C 146.613281 77.289062 148.691406 80.421875 150.105469 83.847656 L 144.851562 87.34375 C 143.621094 83.8125 141.511719 80.644531 138.742188 78.152344 Z M 136.144531 79.867188 C 139.035156 82.265625 141.167969 85.46875 142.253906 89.0625 C 142.613281 90.25 142.855469 91.472656 142.980469 92.734375 C 143.15625 94.554688 143.078125 96.421875 142.703125 98.308594 C 142.328125 100.191406 141.671875 101.949219 140.808594 103.554688 C 140.210938 104.664062 139.515625 105.703125 138.726562 106.660156 C 136.328125 109.550781 133.125 111.683594 129.535156 112.769531 C 128.34375 113.128906 127.113281 113.378906 125.859375 113.496094 C 124.039062 113.671875 122.171875 113.59375 120.285156 113.21875 C 118.402344 112.835938 116.644531 112.1875 115.039062 111.324219 C 113.929688 110.726562 112.890625 110.03125 111.933594 109.234375 C 109.042969 106.835938 106.910156 103.636719 105.824219 100.042969 C 105.464844 98.851562 105.214844 97.621094 105.097656 96.367188 C 104.921875 94.546875 105 92.679688 105.375 90.792969 C 105.75 88.910156 106.40625 87.152344 107.269531 85.546875 C 107.867188 84.4375 108.5625 83.398438 109.351562 82.441406 C 111.75 79.550781 114.960938 77.417969 118.542969 76.332031 C 119.734375 75.972656 120.964844 75.722656 122.21875 75.605469 C 124.039062 75.429688 125.90625 75.507812 127.792969 75.882812 C 129.675781 76.257812 131.433594 76.914062 133.039062 77.785156 C 134.148438 78.375 135.195312 79.078125 136.144531 79.867188 Z M 132.449219 56.070312 L 133.582031 59.5625 L 131.1875 62.339844 L 130.050781 58.851562 Z M 129.597656 66.90625 C 131.449219 67.285156 133.222656 67.835938 134.898438 68.539062 L 133.652344 74.726562 C 132.015625 73.925781 130.253906 73.328125 128.382812 72.953125 C 126.515625 72.578125 124.652344 72.449219 122.832031 72.546875 L 124.078125 66.355469 C 125.898438 66.355469 127.753906 66.53125 129.597656 66.90625 Z M 129.597656 66.90625 " fill-opacity="1" fill-rule="nonzero"/><path fill="#d4131a" d="M 127.074219 79.46875 C 126.164062 79.285156 125.253906 79.191406 124.359375 79.175781 C 122.105469 79.125 119.917969 79.582031 117.929688 80.445312 C 116.253906 81.171875 114.71875 82.191406 113.394531 83.460938 C 111.828125 84.964844 110.566406 86.808594 109.734375 88.902344 C 109.410156 89.738281 109.136719 90.609375 108.953125 91.519531 C 108.769531 92.429688 108.675781 93.339844 108.660156 94.234375 C 108.609375 96.488281 109.058594 98.675781 109.929688 100.664062 C 110.65625 102.339844 111.675781 103.875 112.9375 105.199219 C 114.441406 106.765625 116.285156 108.027344 118.378906 108.859375 C 119.214844 109.183594 120.085938 109.457031 120.996094 109.640625 C 121.90625 109.824219 122.816406 109.921875 123.710938 109.9375 C 125.964844 109.984375 128.152344 109.535156 130.140625 108.667969 C 131.816406 107.9375 133.351562 106.917969 134.675781 105.648438 C 136.25 104.144531 137.503906 102.300781 138.332031 100.210938 C 138.660156 99.371094 138.933594 98.5 139.117188 97.589844 C 139.300781 96.679688 139.394531 95.769531 139.410156 94.875 C 139.460938 92.621094 139.011719 90.433594 138.140625 88.445312 C 137.414062 86.769531 136.394531 85.234375 135.125 83.910156 C 133.621094 82.34375 131.777344 81.074219 129.683594 80.253906 C 128.855469 79.917969 127.984375 79.652344 127.074219 79.46875 Z M 135.824219 89.445312 C 136.554688 91.105469 136.929688 92.933594 136.886719 94.820312 C 136.871094 95.570312 136.792969 96.328125 136.640625 97.085938 C 136.488281 97.84375 136.265625 98.578125 135.984375 99.273438 C 135.292969 101.023438 134.238281 102.566406 132.925781 103.820312 C 131.824219 104.871094 130.539062 105.726562 129.132812 106.34375 C 127.472656 107.070312 125.644531 107.445312 123.757812 107.40625 C 123.007812 107.386719 122.25 107.308594 121.492188 107.15625 C 120.734375 107.003906 120 106.78125 119.304688 106.503906 C 117.554688 105.808594 116.011719 104.753906 114.757812 103.445312 C 113.707031 102.339844 112.851562 101.054688 112.242188 99.648438 C 111.515625 97.988281 111.140625 96.160156 111.183594 94.277344 C 111.199219 93.523438 111.277344 92.765625 111.429688 92.007812 C 111.582031 91.242188 111.804688 90.515625 112.074219 89.820312 C 112.769531 88.070312 113.824219 86.53125 115.132812 85.277344 C 116.238281 84.222656 117.523438 83.367188 118.929688 82.753906 C 120.589844 82.023438 122.417969 81.648438 124.300781 81.691406 C 125.054688 81.707031 125.8125 81.785156 126.570312 81.9375 C 127.328125 82.089844 128.0625 82.3125 128.757812 82.585938 C 130.507812 83.277344 132.046875 84.332031 133.300781 85.644531 C 134.363281 86.761719 135.21875 88.039062 135.824219 89.445312 Z M 135.824219 89.445312 " fill-opacity="1" fill-rule="nonzero"/><g clip-path="url(#2ce0e35ff1)"><path fill="#d4131a" d="M 157.972656 83.710938 C 160.101562 92.304688 159.144531 101.390625 155.328125 109.050781 C 151.558594 116.730469 144.945312 122.847656 137.128906 126.089844 C 133.230469 127.746094 129.023438 128.65625 124.78125 128.78125 C 122.664062 128.871094 120.523438 128.75 118.425781 128.4375 C 116.324219 128.121094 114.25 127.625 112.21875 126.945312 C 108.171875 125.570312 104.335938 123.496094 100.984375 120.757812 C 97.597656 118.050781 94.730469 114.679688 92.40625 110.917969 C 94.15625 114.992188 96.785156 118.710938 100.035156 121.835938 C 101.664062 123.390625 103.460938 124.78125 105.359375 126.011719 C 107.269531 127.242188 109.320312 128.246094 111.429688 129.09375 C 115.652344 130.804688 120.269531 131.585938 124.835938 131.554688 C 129.429688 131.503906 134.003906 130.539062 138.253906 128.796875 C 142.496094 127.035156 146.398438 124.453125 149.671875 121.242188 C 152.925781 118.019531 155.613281 114.207031 157.410156 110.007812 C 158.304688 107.90625 159.039062 105.75 159.519531 103.53125 C 160 101.3125 160.269531 99.058594 160.328125 96.808594 C 160.40625 92.320312 159.640625 87.816406 157.972656 83.710938 Z M 157.972656 83.710938 " fill-opacity="1" fill-rule="nonzero"/></g><path fill="#333333" d="M 91.929688 51.007812 C 93.4375 51.367188 94.003906 50.050781 94.003906 50.050781 C 94.292969 51.207031 93.636719 52.207031 93.636719 52.207031 L 95.089844 51.78125 L 96.542969 51.359375 C 96.542969 51.359375 95.449219 50.871094 95.066406 49.746094 C 95.066406 49.746094 96.257812 50.554688 97.328125 49.425781 C 98.371094 48.332031 98.171875 46.65625 96.257812 45.777344 C 93.324219 44.4375 92.605469 43.316406 92.605469 43.316406 C 92.605469 43.316406 92.605469 44.644531 90.859375 47.367188 C 89.722656 49.140625 90.457031 50.65625 91.929688 51.007812 Z M 91.929688 51.007812 " fill-opacity="1" fill-rule="nonzero"/><path fill="#333333" d="M 87.984375 41.871094 L 87.230469 42.121094 L 87.375 42.558594 L 91.296875 41.257812 L 91.152344 40.816406 L 90.316406 41.097656 C 90.148438 41.152344 89.980469 41.152344 89.828125 41.105469 C 89.730469 41.066406 89.660156 40.984375 89.613281 40.851562 L 88.910156 38.734375 L 89.78125 36.839844 L 93.300781 39.539062 C 93.375 39.597656 93.421875 39.660156 93.445312 39.738281 C 93.46875 39.820312 93.445312 39.90625 93.347656 39.996094 C 93.261719 40.082031 93.054688 40.1875 92.734375 40.292969 L 92.296875 40.433594 L 92.4375 40.875 L 96.3125 39.589844 L 96.167969 39.148438 L 95.855469 39.253906 C 95.625 39.332031 95.410156 39.347656 95.203125 39.308594 C 95.003906 39.269531 94.777344 39.15625 94.539062 38.972656 L 90.296875 35.714844 L 91.601562 32.976562 C 91.761719 32.648438 91.953125 32.371094 92.191406 32.136719 C 92.429688 31.90625 92.664062 31.746094 92.902344 31.667969 L 93.171875 31.578125 L 93.03125 31.140625 L 89.507812 32.304688 L 89.652344 32.746094 L 89.890625 32.664062 C 90.179688 32.570312 90.402344 32.546875 90.5625 32.585938 C 90.722656 32.625 90.816406 32.71875 90.867188 32.847656 C 90.921875 33.023438 90.898438 33.246094 90.777344 33.511719 L 88.6875 38.046875 L 87.359375 34.0625 C 87.3125 33.917969 87.320312 33.78125 87.382812 33.664062 C 87.449219 33.535156 87.574219 33.449219 87.75 33.382812 L 88.589844 33.105469 L 88.445312 32.664062 L 84.523438 33.972656 L 84.667969 34.414062 L 85.308594 34.207031 C 85.554688 34.125 85.746094 34.101562 85.875 34.140625 C 86.003906 34.183594 86.089844 34.269531 86.136719 34.40625 L 88.414062 41.265625 C 88.453125 41.394531 88.445312 41.511719 88.375 41.625 C 88.308594 41.71875 88.183594 41.808594 87.984375 41.871094 Z M 87.984375 41.871094 " fill-opacity="1" fill-rule="nonzero"/><g clip-path="url(#603343dea5)"><path fill="#d4131a" d="M 66.484375 54.355469 C 67.539062 53.035156 69.039062 52.207031 70.710938 52.015625 C 72.386719 51.824219 74.03125 52.300781 75.347656 53.347656 L 82.449219 58.945312 L 85.285156 57.101562 L 92.40625 73.710938 L 87.082031 55.933594 L 87.121094 55.910156 L 80.964844 37.328125 C 80.4375 35.730469 80.554688 34.015625 81.316406 32.511719 C 82.074219 31.003906 83.367188 29.886719 84.972656 29.351562 L 88.175781 28.289062 L 108.960938 21.90625 L 86.578125 26.644531 L 77.089844 16.867188 C 75.324219 15.046875 72.410156 15 70.589844 16.773438 L 41.289062 45.210938 C 39.46875 46.976562 39.421875 49.890625 41.195312 51.710938 L 56.238281 67.210938 Z M 49.003906 55.34375 L 48.683594 55.015625 L 49.25 54.464844 C 49.394531 54.324219 49.476562 54.1875 49.492188 54.058594 C 49.507812 53.929688 49.460938 53.820312 49.371094 53.722656 L 44.339844 48.539062 C 44.246094 48.4375 44.125 48.398438 43.988281 48.421875 C 43.851562 48.4375 43.691406 48.539062 43.507812 48.722656 L 43.03125 49.195312 L 42.710938 48.867188 L 45.683594 45.984375 L 46 46.3125 L 45.371094 46.925781 C 45.234375 47.054688 45.164062 47.191406 45.164062 47.335938 C 45.15625 47.476562 45.210938 47.597656 45.3125 47.710938 L 48.238281 50.722656 L 48.148438 45.738281 C 48.140625 45.449219 48.070312 45.234375 47.941406 45.105469 C 47.847656 45.003906 47.710938 44.972656 47.550781 44.996094 C 47.390625 45.027344 47.199219 45.148438 46.984375 45.363281 L 46.800781 45.539062 L 46.480469 45.210938 L 49.148438 42.625 L 49.46875 42.949219 L 49.257812 43.148438 C 49.082031 43.324219 48.933594 43.566406 48.828125 43.875 C 48.714844 44.1875 48.660156 44.523438 48.660156 44.890625 L 48.683594 47.917969 L 53.914062 49.003906 C 54.210938 49.066406 54.457031 49.066406 54.65625 49.019531 C 54.859375 48.972656 55.050781 48.859375 55.226562 48.691406 L 55.464844 48.460938 L 55.785156 48.789062 L 52.835938 51.613281 L 52.519531 51.289062 L 52.851562 50.96875 C 53.09375 50.730469 53.238281 50.554688 53.277344 50.433594 C 53.316406 50.3125 53.308594 50.226562 53.246094 50.160156 C 53.1875 50.105469 53.117188 50.066406 53.027344 50.050781 L 48.683594 49.15625 L 48.722656 51.230469 L 50.273438 52.828125 C 50.371094 52.925781 50.472656 52.972656 50.578125 52.964844 C 50.738281 52.941406 50.886719 52.867188 51.015625 52.75 L 51.648438 52.132812 L 51.964844 52.460938 Z M 54.507812 59.464844 C 53.148438 59.394531 52.039062 58.242188 52.023438 56.886719 C 52.007812 55.527344 53.085938 54.480469 54.441406 54.554688 L 55.167969 54.59375 L 55.160156 53.867188 C 55.144531 52.507812 56.222656 51.464844 57.582031 51.535156 C 58.9375 51.605469 60.046875 52.757812 60.0625 54.113281 L 60.070312 54.847656 L 60.136719 59.761719 L 55.226562 59.511719 Z M 54.507812 59.464844 " fill-opacity="1" fill-rule="nonzero"/></g><g clip-path="url(#bf362203f3)"><g clip-path="url(#b969d3f7c6)"><g clip-path="url(#d00402da3e)"><path fill="#333333" d="M 129.734375 95.632812 C 129.785156 95.070312 129.707031 94.519531 129.527344 94.007812 C 129.371094 93.578125 129.144531 93.179688 128.851562 92.832031 C 128.507812 92.414062 128.070312 92.070312 127.5625 91.828125 C 127.359375 91.730469 127.144531 91.652344 126.921875 91.589844 C 126.699219 91.527344 126.472656 91.492188 126.25 91.46875 C 125.691406 91.421875 125.140625 91.496094 124.628906 91.679688 C 124.199219 91.832031 123.796875 92.058594 123.449219 92.351562 C 123.035156 92.699219 122.6875 93.136719 122.445312 93.644531 C 122.351562 93.847656 122.269531 94.058594 122.207031 94.28125 C 122.148438 94.507812 122.109375 94.730469 122.089844 94.953125 C 122.039062 95.515625 122.113281 96.066406 122.296875 96.578125 C 122.449219 97.003906 122.675781 97.40625 122.96875 97.753906 C 123.316406 98.171875 123.753906 98.515625 124.261719 98.757812 C 124.464844 98.855469 124.675781 98.933594 124.902344 98.996094 C 125.125 99.054688 125.347656 99.09375 125.570312 99.117188 C 126.132812 99.164062 126.683594 99.089844 127.195312 98.90625 C 127.625 98.753906 128.023438 98.527344 128.371094 98.234375 C 128.789062 97.886719 129.132812 97.449219 129.375 96.941406 C 129.472656 96.738281 129.550781 96.523438 129.613281 96.300781 C 129.675781 96.078125 129.714844 95.855469 129.734375 95.632812 Z M 129.050781 94.246094 L 128.40625 94.617188 C 128.289062 94.191406 128.070312 93.804688 127.765625 93.492188 L 128.40625 93.125 C 128.691406 93.453125 128.910156 93.835938 129.050781 94.246094 Z M 127.871094 95.828125 C 127.820312 96.023438 127.738281 96.207031 127.632812 96.371094 C 127.5625 96.488281 127.480469 96.59375 127.390625 96.6875 C 127.113281 96.976562 126.757812 97.179688 126.367188 97.273438 C 126.238281 97.300781 126.105469 97.320312 125.972656 97.320312 C 125.777344 97.328125 125.578125 97.304688 125.378906 97.25 C 125.183594 97.199219 125 97.117188 124.835938 97.011719 C 124.722656 96.941406 124.617188 96.859375 124.519531 96.769531 C 124.230469 96.492188 124.027344 96.136719 123.9375 95.746094 C 123.90625 95.617188 123.890625 95.484375 123.886719 95.351562 C 123.878906 95.15625 123.902344 94.957031 123.957031 94.757812 C 124.011719 94.5625 124.09375 94.378906 124.195312 94.214844 C 124.265625 94.101562 124.351562 93.996094 124.441406 93.898438 C 124.714844 93.609375 125.070312 93.40625 125.460938 93.316406 C 125.589844 93.285156 125.722656 93.269531 125.855469 93.265625 C 126.050781 93.261719 126.25 93.28125 126.449219 93.335938 C 126.644531 93.390625 126.828125 93.472656 126.992188 93.574219 C 127.109375 93.644531 127.214844 93.730469 127.308594 93.820312 C 127.597656 94.09375 127.804688 94.449219 127.890625 94.839844 C 127.921875 94.972656 127.941406 95.101562 127.941406 95.238281 C 127.949219 95.429688 127.925781 95.628906 127.871094 95.828125 Z M 126.785156 92.101562 C 126.996094 92.160156 127.199219 92.238281 127.390625 92.335938 L 127.195312 93.050781 C 127.007812 92.941406 126.808594 92.859375 126.59375 92.800781 C 126.378906 92.742188 126.160156 92.710938 125.949219 92.707031 L 126.140625 91.996094 C 126.355469 92.007812 126.570312 92.042969 126.785156 92.101562 Z M 124.867188 92.15625 L 125.234375 92.800781 C 124.8125 92.914062 124.425781 93.136719 124.109375 93.441406 L 123.742188 92.800781 C 124.070312 92.515625 124.453125 92.296875 124.867188 92.15625 Z M 122.722656 94.421875 C 122.78125 94.210938 122.859375 94.007812 122.953125 93.816406 L 123.667969 94.011719 C 123.5625 94.195312 123.476562 94.398438 123.417969 94.613281 C 123.359375 94.828125 123.332031 95.046875 123.328125 95.257812 L 122.613281 95.0625 C 122.628906 94.851562 122.664062 94.636719 122.722656 94.421875 Z M 122.777344 96.339844 L 123.421875 95.972656 C 123.535156 96.394531 123.757812 96.78125 124.0625 97.09375 L 123.417969 97.460938 C 123.136719 97.132812 122.917969 96.75 122.777344 96.339844 Z M 125.042969 98.484375 C 124.828125 98.425781 124.625 98.347656 124.4375 98.25 L 124.628906 97.539062 C 124.816406 97.644531 125.019531 97.726562 125.234375 97.785156 C 125.449219 97.84375 125.664062 97.875 125.878906 97.878906 L 125.683594 98.59375 C 125.472656 98.578125 125.257812 98.542969 125.042969 98.484375 Z M 126.957031 98.429688 L 126.589844 97.785156 C 127.011719 97.671875 127.402344 97.449219 127.714844 97.144531 L 128.082031 97.789062 C 127.753906 98.070312 127.371094 98.289062 126.957031 98.429688 Z M 128.15625 96.574219 C 128.265625 96.390625 128.347656 96.1875 128.40625 95.972656 C 128.464844 95.757812 128.496094 95.539062 128.496094 95.328125 L 129.210938 95.523438 C 129.195312 95.734375 129.160156 95.949219 129.101562 96.164062 C 129.046875 96.375 128.96875 96.578125 128.871094 96.769531 Z M 128.15625 96.574219 " fill-opacity="1" fill-rule="nonzero"/></g></g></g><g clip-path="url(#28ab458589)"><g clip-path="url(#21266eb9fb)"><g clip-path="url(#2363337028)"><path fill="#333333" d="M 128.898438 84.34375 C 127.976562 84.089844 127.050781 83.960938 126.136719 83.945312 L 124.320312 90.609375 C 125.222656 90.300781 126.226562 90.25 127.214844 90.519531 L 137.074219 93.207031 C 136.296875 89.066406 133.238281 85.523438 128.898438 84.34375 Z M 128.589844 88.636719 C 128.386719 88.582031 128.21875 88.453125 128.113281 88.289062 C 128.0625 88.839844 128.289062 89.203125 128.289062 89.203125 L 127.625 89.019531 L 126.957031 88.839844 C 126.957031 88.839844 127.335938 88.640625 127.574219 88.140625 C 127.398438 88.226562 127.191406 88.253906 126.984375 88.199219 C 126.542969 88.078125 126.28125 87.621094 126.402344 87.179688 C 126.523438 86.734375 126.980469 86.476562 127.421875 86.59375 C 127.429688 86.597656 127.433594 86.601562 127.441406 86.601562 C 127.441406 86.542969 127.453125 86.488281 127.46875 86.429688 C 127.589844 85.988281 128.046875 85.726562 128.488281 85.847656 C 128.929688 85.96875 129.191406 86.425781 129.070312 86.867188 C 129.054688 86.921875 129.035156 86.976562 129.007812 87.027344 C 129.015625 87.03125 129.019531 87.03125 129.027344 87.03125 C 129.46875 87.152344 129.730469 87.609375 129.609375 88.050781 C 129.488281 88.496094 129.035156 88.757812 128.589844 88.636719 Z M 128.589844 88.636719 " fill-opacity="1" fill-rule="nonzero"/></g></g></g><g clip-path="url(#c1afdbb917)"><g clip-path="url(#9f8fa76560)"><g clip-path="url(#47ea94f4ea)"><path fill="#d4131a" d="M 121.136719 93.992188 L 123.828125 84.132812 C 119.6875 84.910156 116.144531 87.96875 114.960938 92.304688 C 114.710938 93.226562 114.582031 94.15625 114.5625 95.070312 L 121.226562 96.886719 C 120.917969 95.984375 120.867188 94.980469 121.136719 93.992188 Z M 119.75 93.890625 L 119.519531 94.027344 L 117.996094 94.964844 L 117.15625 93.382812 L 117.03125 93.148438 C 116.800781 92.710938 116.953125 92.144531 117.375 91.886719 C 117.796875 91.628906 118.328125 91.773438 118.558594 92.210938 L 118.683594 92.445312 L 118.910156 92.304688 C 119.332031 92.046875 119.859375 92.191406 120.09375 92.628906 C 120.324219 93.066406 120.171875 93.628906 119.75 93.890625 Z M 119.75 93.890625 " fill-opacity="1" fill-rule="nonzero"/></g></g></g><g clip-path="url(#28dfcda35a)"><g clip-path="url(#c205f4c04f)"><g clip-path="url(#5ba768317e)"><path fill="#333333" d="M 124.609375 100.066406 L 114.753906 97.378906 C 115.53125 101.519531 118.589844 105.0625 122.925781 106.242188 C 123.847656 106.496094 124.777344 106.625 125.691406 106.644531 L 127.507812 99.980469 C 126.605469 100.289062 125.601562 100.339844 124.609375 100.066406 Z M 124.621094 104.253906 C 124.027344 104.40625 123.796875 103.890625 123.796875 103.890625 C 123.691406 104.347656 123.957031 104.738281 123.957031 104.738281 L 122.800781 104.425781 C 122.800781 104.425781 123.230469 104.222656 123.371094 103.773438 C 123.371094 103.773438 122.910156 104.101562 122.476562 103.667969 C 122.054688 103.246094 122.121094 102.582031 122.871094 102.21875 C 124.023438 101.664062 124.296875 101.21875 124.296875 101.21875 C 124.296875 101.21875 124.304688 101.742188 125.015625 102.804688 C 125.480469 103.496094 125.199219 104.101562 124.621094 104.253906 Z M 124.621094 104.253906 " fill-opacity="1" fill-rule="nonzero"/></g></g></g><g clip-path="url(#13fb2aa10d)"><g clip-path="url(#767890410f)"><g clip-path="url(#b64b4c861b)"><path fill="#d4131a" d="M 137.261719 95.515625 L 130.597656 93.699219 C 130.90625 94.601562 130.957031 95.605469 130.6875 96.59375 L 128 106.453125 C 132.136719 105.675781 135.679688 102.617188 136.863281 98.28125 C 137.117188 97.355469 137.242188 96.429688 137.261719 95.515625 Z M 133.085938 98.988281 L 132.0625 96.882812 L 134.011719 95.589844 L 135.039062 97.695312 Z M 133.085938 98.988281 " fill-opacity="1" fill-rule="nonzero"/></g></g></g><g clip-path="url(#bf747be846)"><g clip-path="url(#9fd36b7962)"><g clip-path="url(#359e67da82)"><path fill="#d4131a" d="M 127.273438 95.664062 C 127.234375 95.800781 127.179688 95.925781 127.105469 96.042969 C 127.058594 96.121094 127 96.195312 126.9375 96.261719 C 126.746094 96.460938 126.496094 96.601562 126.226562 96.664062 C 126.136719 96.6875 126.046875 96.699219 125.953125 96.703125 C 125.816406 96.703125 125.679688 96.691406 125.542969 96.652344 C 125.40625 96.617188 125.277344 96.558594 125.164062 96.488281 C 125.085938 96.4375 125.011719 96.378906 124.945312 96.316406 C 124.746094 96.125 124.605469 95.878906 124.539062 95.605469 C 124.519531 95.515625 124.507812 95.425781 124.503906 95.332031 C 124.5 95.195312 124.515625 95.058594 124.554688 94.921875 C 124.589844 94.785156 124.648438 94.660156 124.71875 94.542969 C 124.769531 94.464844 124.824219 94.390625 124.890625 94.328125 C 125.082031 94.125 125.328125 93.984375 125.601562 93.921875 C 125.691406 93.902344 125.78125 93.886719 125.875 93.886719 C 126.007812 93.882812 126.148438 93.894531 126.285156 93.933594 C 126.421875 93.972656 126.546875 94.027344 126.660156 94.097656 C 126.742188 94.148438 126.8125 94.207031 126.878906 94.269531 C 127.082031 94.460938 127.222656 94.710938 127.285156 94.980469 C 127.304688 95.070312 127.316406 95.160156 127.320312 95.253906 C 127.328125 95.390625 127.308594 95.527344 127.273438 95.664062 Z M 127.273438 95.664062 " fill-opacity="1" fill-rule="nonzero"/></g></g></g><g fill="#333333" fill-opacity="1"><g transform="translate(172.537727, 83.361416)"><g><path d="M -0.171875 6.21875 C 2.222656 6.21875 4.03125 5.109375 5.523438 2.953125 C 7.019531 0.765625 7.191406 -1.492188 7.191406 -4.449219 L 7.191406 -18.414062 C 7.191406 -21.507812 7.191406 -22.828125 9.9375 -23.523438 L 9.9375 -24.21875 L 1.25 -24.21875 L 1.25 -23.523438 C 3.996094 -22.828125 4.066406 -21.578125 4.066406 -18.414062 L 4.03125 -1.910156 C 4.03125 1.910156 3.476562 3.925781 1.460938 3.925781 C 0.277344 3.925781 -0.695312 2.847656 -1.597656 2.847656 C -2.328125 2.847656 -2.917969 3.648438 -2.917969 4.480469 C -2.917969 5.664062 -2.015625 6.21875 -0.171875 6.21875 Z M -0.171875 6.21875 "/></g></g></g><g fill="#333333" fill-opacity="1"><g transform="translate(183.8284, 83.361416)"><g><path d="M 13.898438 0.554688 C 20.710938 0.554688 26.269531 -5.039062 26.269531 -12.195312 C 26.269531 -19.285156 21.265625 -24.773438 13.933594 -24.773438 C 7.15625 -24.773438 1.597656 -19.214844 1.597656 -12.160156 C 1.597656 -5.175781 6.707031 0.554688 13.898438 0.554688 Z M 14.699219 -0.453125 C 9.347656 -0.277344 5.59375 -5.246094 5.316406 -12.648438 C 5.109375 -19.042969 8.0625 -23.59375 13.132812 -23.765625 C 18.519531 -23.941406 22.273438 -19.109375 22.515625 -11.882812 C 22.757812 -5.316406 19.839844 -0.625 14.699219 -0.453125 Z M 14.699219 -0.453125 "/></g></g></g><g fill="#333333" fill-opacity="1"><g transform="translate(211.690306, 83.361416)"><g><path d="M 7.816406 0.488281 C 13.65625 0.488281 17.164062 -2.746094 17.164062 -7.089844 C 17.164062 -10.320312 15.425781 -12.125 11.847656 -13.378906 C 7.679688 -14.800781 4.167969 -16.121094 4.167969 -19.421875 C 4.167969 -21.820312 6.21875 -23.382812 8.929688 -23.382812 C 12.335938 -23.382812 14.453125 -21.300781 15.742188 -17.339844 L 16.402344 -17.441406 L 15.808594 -23.941406 C 14.003906 -24.390625 12.195312 -24.636719 10.144531 -24.636719 C 5.351562 -24.636719 1.945312 -21.648438 1.945312 -17.824219 C 1.945312 -14.351562 4.136719 -12.371094 8.304688 -10.910156 C 11.988281 -9.625 14.628906 -8.824219 14.628906 -5.109375 C 14.628906 -2.46875 12.230469 -0.695312 9.382812 -0.695312 C 5.664062 -0.695312 2.953125 -2.816406 1.738281 -7.4375 L 1.042969 -7.332031 L 1.5625 -0.347656 C 3.648438 0.242188 5.664062 0.488281 7.816406 0.488281 Z M 7.816406 0.488281 "/></g></g></g><g fill="#333333" fill-opacity="1"><g transform="translate(230.068052, 83.361416)"><g><path d="M 19.457031 -6.464844 C 16.921875 -2.257812 14.039062 -0.972656 10.597656 -0.972656 C 9.730469 -0.972656 8.164062 -1.007812 7.019531 -1.113281 L 7.019531 -12.09375 L 9.554688 -12.023438 C 13.378906 -11.917969 14.316406 -10.425781 14.664062 -8.445312 L 15.289062 -8.445312 L 15.394531 -16.191406 L 14.800781 -16.191406 C 14.351562 -14.316406 13.238281 -13.167969 9.554688 -13.066406 L 7.019531 -12.996094 L 7.019531 -23.210938 C 8.6875 -23.246094 9.070312 -23.28125 10.078125 -23.28125 C 14.003906 -23.28125 15.84375 -22.097656 17.234375 -18.035156 L 17.894531 -18.171875 L 17.476562 -24.21875 L 1.148438 -24.21875 L 1.148438 -23.523438 C 3.855469 -22.828125 3.890625 -21.507812 3.890625 -18.414062 L 3.890625 -5.800781 C 3.890625 -2.710938 3.855469 -1.390625 1.148438 -0.695312 L 1.148438 0 L 17.859375 0 L 20.082031 -6.21875 Z M 19.457031 -6.464844 "/></g></g></g><g fill="#333333" fill-opacity="1"><g transform="translate(250.842895, 83.361416)"><g><path d="M 9.484375 -9.972656 C 15.496094 -10.078125 19.457031 -12.925781 19.457031 -17.546875 C 19.457031 -21.4375 16.402344 -24.359375 11.292969 -24.359375 C 10.042969 -24.359375 8.0625 -24.21875 5.800781 -24.21875 L 1.285156 -24.21875 L 1.285156 -23.523438 C 3.996094 -22.828125 4.03125 -21.507812 4.03125 -18.414062 L 4.03125 -5.800781 C 4.03125 -2.710938 4.03125 -1.390625 1.285156 -0.695312 L 1.285156 0 L 9.972656 0 L 9.972656 -0.695312 C 7.226562 -1.390625 7.15625 -2.640625 7.15625 -5.800781 L 7.15625 -23.105469 C 8.097656 -23.28125 9.105469 -23.351562 10.042969 -23.351562 C 14.074219 -23.351562 16.085938 -20.328125 16.085938 -17.09375 C 16.085938 -13.480469 13.585938 -10.980469 9.417969 -10.773438 Z M 9.484375 -9.972656 "/></g></g></g><g fill="#333333" fill-opacity="1"><g transform="translate(271.131362, 83.361416)"><g><path d="M 23.351562 -18.414062 C 23.351562 -21.507812 23.351562 -22.828125 26.09375 -23.523438 L 26.09375 -24.21875 L 17.40625 -24.21875 L 17.40625 -23.523438 C 20.152344 -22.828125 20.222656 -21.578125 20.222656 -18.414062 L 20.222656 -13.378906 L 7.15625 -13.378906 L 7.15625 -18.414062 C 7.15625 -21.507812 7.15625 -22.828125 9.902344 -23.523438 L 9.902344 -24.21875 L 1.214844 -24.21875 L 1.214844 -23.523438 C 3.960938 -22.828125 4.03125 -21.578125 4.03125 -18.414062 L 4.03125 -5.800781 C 4.03125 -2.710938 4.03125 -1.390625 1.285156 -0.695312 L 1.285156 0 L 9.972656 0 L 9.972656 -0.695312 C 7.226562 -1.390625 7.15625 -2.640625 7.15625 -5.800781 L 7.15625 -12.40625 L 20.222656 -12.40625 L 20.222656 -5.800781 C 20.222656 -2.710938 20.222656 -1.390625 17.476562 -0.695312 L 17.476562 0 L 26.164062 0 L 26.164062 -0.695312 C 23.417969 -1.390625 23.351562 -2.640625 23.351562 -5.800781 Z M 23.351562 -18.414062 "/></g></g></g><g fill="#333333" fill-opacity="1"><g transform="translate(298.506902, 83.361416)"><g><path d="M 3.023438 -16.054688 C 5.039062 -17.441406 7.125 -20.082031 7.125 -22.132812 C 7.125 -23.59375 6.253906 -24.324219 5.039062 -24.324219 C 3.789062 -24.324219 2.882812 -23.523438 2.882812 -22.445312 C 2.882812 -20.8125 4.726562 -20.847656 4.761719 -19.980469 C 4.796875 -19.214844 3.683594 -17.582031 2.570312 -16.574219 Z M 3.023438 -16.054688 "/></g></g></g><g fill="#333333" fill-opacity="1"><g transform="translate(308.164774, 83.361416)"><g><path d="M 7.816406 0.488281 C 13.65625 0.488281 17.164062 -2.746094 17.164062 -7.089844 C 17.164062 -10.320312 15.425781 -12.125 11.847656 -13.378906 C 7.679688 -14.800781 4.167969 -16.121094 4.167969 -19.421875 C 4.167969 -21.820312 6.21875 -23.382812 8.929688 -23.382812 C 12.335938 -23.382812 14.453125 -21.300781 15.742188 -17.339844 L 16.402344 -17.441406 L 15.808594 -23.941406 C 14.003906 -24.390625 12.195312 -24.636719 10.144531 -24.636719 C 5.351562 -24.636719 1.945312 -21.648438 1.945312 -17.824219 C 1.945312 -14.351562 4.136719 -12.371094 8.304688 -10.910156 C 11.988281 -9.625 14.628906 -8.824219 14.628906 -5.109375 C 14.628906 -2.46875 12.230469 -0.695312 9.382812 -0.695312 C 5.664062 -0.695312 2.953125 -2.816406 1.738281 -7.4375 L 1.042969 -7.332031 L 1.5625 -0.347656 C 3.648438 0.242188 5.664062 0.488281 7.816406 0.488281 Z M 7.816406 0.488281 "/></g></g></g><g fill="#d4131a" fill-opacity="1"><g transform="translate(187.667743, 98.181429)"><g><path d="M 5.65625 0 L 3.578125 -3.609375 L 2.453125 -3.609375 L 2.453125 0 L 0.96875 0 L 0.96875 -9.015625 L 4.078125 -9.015625 C 4.773438 -9.015625 5.363281 -8.890625 5.84375 -8.640625 C 6.320312 -8.398438 6.679688 -8.078125 6.921875 -7.671875 C 7.160156 -7.265625 7.28125 -6.8125 7.28125 -6.3125 C 7.28125 -5.726562 7.109375 -5.195312 6.765625 -4.71875 C 6.421875 -4.238281 5.894531 -3.910156 5.1875 -3.734375 L 7.421875 0 Z M 2.453125 -4.78125 L 4.078125 -4.78125 C 4.640625 -4.78125 5.0625 -4.914062 5.34375 -5.1875 C 5.625 -5.46875 5.765625 -5.84375 5.765625 -6.3125 C 5.765625 -6.78125 5.625 -7.144531 5.34375 -7.40625 C 5.0625 -7.675781 4.640625 -7.8125 4.078125 -7.8125 L 2.453125 -7.8125 Z M 2.453125 -4.78125 "/></g></g></g><g fill="#d4131a" fill-opacity="1"><g transform="translate(197.457159, 98.181429)"><g><path d="M 5.078125 0.09375 C 4.242188 0.09375 3.472656 -0.101562 2.765625 -0.5 C 2.066406 -0.894531 1.507812 -1.441406 1.09375 -2.140625 C 0.6875 -2.847656 0.484375 -3.644531 0.484375 -4.53125 C 0.484375 -5.40625 0.6875 -6.191406 1.09375 -6.890625 C 1.507812 -7.597656 2.066406 -8.144531 2.765625 -8.53125 C 3.472656 -8.925781 4.242188 -9.125 5.078125 -9.125 C 5.929688 -9.125 6.707031 -8.925781 7.40625 -8.53125 C 8.113281 -8.144531 8.671875 -7.597656 9.078125 -6.890625 C 9.484375 -6.191406 9.6875 -5.40625 9.6875 -4.53125 C 9.6875 -3.644531 9.484375 -2.847656 9.078125 -2.140625 C 8.671875 -1.441406 8.113281 -0.894531 7.40625 -0.5 C 6.707031 -0.101562 5.929688 0.09375 5.078125 0.09375 Z M 5.078125 -1.1875 C 5.679688 -1.1875 6.210938 -1.320312 6.671875 -1.59375 C 7.140625 -1.875 7.503906 -2.265625 7.765625 -2.765625 C 8.035156 -3.273438 8.171875 -3.863281 8.171875 -4.53125 C 8.171875 -5.195312 8.035156 -5.78125 7.765625 -6.28125 C 7.503906 -6.78125 7.140625 -7.160156 6.671875 -7.421875 C 6.210938 -7.691406 5.679688 -7.828125 5.078125 -7.828125 C 4.484375 -7.828125 3.953125 -7.691406 3.484375 -7.421875 C 3.015625 -7.160156 2.648438 -6.78125 2.390625 -6.28125 C 2.128906 -5.78125 2 -5.195312 2 -4.53125 C 2 -3.863281 2.128906 -3.273438 2.390625 -2.765625 C 2.648438 -2.265625 3.015625 -1.875 3.484375 -1.59375 C 3.953125 -1.320312 4.484375 -1.1875 5.078125 -1.1875 Z M 5.078125 -1.1875 "/></g></g></g><g fill="#d4131a" fill-opacity="1"><g transform="translate(209.217343, 98.181429)"><g><path d="M 2.4375 -9.015625 L 2.4375 -3.265625 C 2.4375 -2.585938 2.613281 -2.070312 2.96875 -1.71875 C 3.332031 -1.375 3.832031 -1.203125 4.46875 -1.203125 C 5.125 -1.203125 5.628906 -1.375 5.984375 -1.71875 C 6.335938 -2.070312 6.515625 -2.585938 6.515625 -3.265625 L 6.515625 -9.015625 L 8 -9.015625 L 8 -3.296875 C 8 -2.554688 7.835938 -1.929688 7.515625 -1.421875 C 7.203125 -0.910156 6.773438 -0.53125 6.234375 -0.28125 C 5.703125 -0.03125 5.113281 0.09375 4.46875 0.09375 C 3.8125 0.09375 3.21875 -0.03125 2.6875 -0.28125 C 2.15625 -0.53125 1.734375 -0.910156 1.421875 -1.421875 C 1.109375 -1.929688 0.953125 -2.554688 0.953125 -3.296875 L 0.953125 -9.015625 Z M 2.4375 -9.015625 "/></g></g></g><g fill="#d4131a" fill-opacity="1"><g transform="translate(219.75876, 98.181429)"><g><path d="M 2.453125 -1.1875 L 5.5 -1.1875 L 5.5 0 L 0.96875 0 L 0.96875 -9.015625 L 2.453125 -9.015625 Z M 2.453125 -1.1875 "/></g></g></g><g fill="#d4131a" fill-opacity="1"><g transform="translate(227.110641, 98.181429)"><g><path d="M 2.453125 -7.8125 L 2.453125 -5.171875 L 5.5625 -5.171875 L 5.5625 -3.96875 L 2.453125 -3.96875 L 2.453125 -1.203125 L 5.953125 -1.203125 L 5.953125 0 L 0.96875 0 L 0.96875 -9.03125 L 5.953125 -9.03125 L 5.953125 -7.8125 Z M 2.453125 -7.8125 "/></g></g></g><g fill="#d4131a" fill-opacity="1"><g transform="translate(235.499766, 98.181429)"><g><path d="M 6.796875 -9.015625 L 6.796875 -7.8125 L 4.390625 -7.8125 L 4.390625 0 L 2.921875 0 L 2.921875 -7.8125 L 0.5 -7.8125 L 0.5 -9.015625 Z M 6.796875 -9.015625 "/></g></g></g><g fill="#d4131a" fill-opacity="1"><g transform="translate(244.407519, 98.181429)"><g><path d="M 6.796875 -9.015625 L 6.796875 -7.8125 L 4.390625 -7.8125 L 4.390625 0 L 2.921875 0 L 2.921875 -7.8125 L 0.5 -7.8125 L 0.5 -9.015625 Z M 6.796875 -9.015625 "/></g></g></g><g fill="#d4131a" fill-opacity="1"><g transform="translate(253.315271, 98.181429)"><g><path d="M 2.453125 -7.8125 L 2.453125 -5.171875 L 5.5625 -5.171875 L 5.5625 -3.96875 L 2.453125 -3.96875 L 2.453125 -1.203125 L 5.953125 -1.203125 L 5.953125 0 L 0.96875 0 L 0.96875 -9.03125 L 5.953125 -9.03125 L 5.953125 -7.8125 Z M 2.453125 -7.8125 "/></g></g></g><g fill="#d4131a" fill-opacity="1"><g transform="translate(261.704396, 98.181429)"><g/></g></g><g fill="#d4131a" fill-opacity="1"><g transform="translate(266.670602, 98.181429)"><g><path d="M 7.5 -6.421875 C 7.257812 -6.867188 6.929688 -7.207031 6.515625 -7.4375 C 6.109375 -7.664062 5.628906 -7.78125 5.078125 -7.78125 C 4.484375 -7.78125 3.953125 -7.644531 3.484375 -7.375 C 3.015625 -7.113281 2.648438 -6.734375 2.390625 -6.234375 C 2.128906 -5.742188 2 -5.175781 2 -4.53125 C 2 -3.875 2.128906 -3.296875 2.390625 -2.796875 C 2.648438 -2.304688 3.015625 -1.925781 3.484375 -1.65625 C 3.953125 -1.394531 4.484375 -1.265625 5.078125 -1.265625 C 5.890625 -1.265625 6.546875 -1.488281 7.046875 -1.9375 C 7.546875 -2.382812 7.851562 -2.992188 7.96875 -3.765625 L 4.578125 -3.765625 L 4.578125 -4.9375 L 9.546875 -4.9375 L 9.546875 -3.78125 C 9.453125 -3.082031 9.203125 -2.4375 8.796875 -1.84375 C 8.398438 -1.257812 7.878906 -0.789062 7.234375 -0.4375 C 6.585938 -0.09375 5.867188 0.078125 5.078125 0.078125 C 4.234375 0.078125 3.460938 -0.117188 2.765625 -0.515625 C 2.066406 -0.910156 1.507812 -1.457031 1.09375 -2.15625 C 0.6875 -2.851562 0.484375 -3.644531 0.484375 -4.53125 C 0.484375 -5.40625 0.6875 -6.191406 1.09375 -6.890625 C 1.507812 -7.597656 2.066406 -8.144531 2.765625 -8.53125 C 3.472656 -8.925781 4.242188 -9.125 5.078125 -9.125 C 6.035156 -9.125 6.890625 -8.890625 7.640625 -8.421875 C 8.390625 -7.953125 8.929688 -7.285156 9.265625 -6.421875 Z M 7.5 -6.421875 "/></g></g></g><g fill="#d4131a" fill-opacity="1"><g transform="translate(278.288166, 98.181429)"><g><path d="M 2.4375 -9.015625 L 2.4375 -3.265625 C 2.4375 -2.585938 2.613281 -2.070312 2.96875 -1.71875 C 3.332031 -1.375 3.832031 -1.203125 4.46875 -1.203125 C 5.125 -1.203125 5.628906 -1.375 5.984375 -1.71875 C 6.335938 -2.070312 6.515625 -2.585938 6.515625 -3.265625 L 6.515625 -9.015625 L 8 -9.015625 L 8 -3.296875 C 8 -2.554688 7.835938 -1.929688 7.515625 -1.421875 C 7.203125 -0.910156 6.773438 -0.53125 6.234375 -0.28125 C 5.703125 -0.03125 5.113281 0.09375 4.46875 0.09375 C 3.8125 0.09375 3.21875 -0.03125 2.6875 -0.28125 C 2.15625 -0.53125 1.734375 -0.910156 1.421875 -1.421875 C 1.109375 -1.929688 0.953125 -2.554688 0.953125 -3.296875 L 0.953125 -9.015625 Z M 2.4375 -9.015625 "/></g></g></g><g fill="#d4131a" fill-opacity="1"><g transform="translate(288.829581, 98.181429)"><g><path d="M 2.453125 -9.015625 L 2.453125 0 L 0.96875 0 L 0.96875 -9.015625 Z M 2.453125 -9.015625 "/></g></g></g><g fill="#d4131a" fill-opacity="1"><g transform="translate(293.847648, 98.181429)"><g><path d="M 3.921875 -9.015625 C 4.878906 -9.015625 5.71875 -8.828125 6.4375 -8.453125 C 7.15625 -8.085938 7.710938 -7.5625 8.109375 -6.875 C 8.503906 -6.1875 8.703125 -5.382812 8.703125 -4.46875 C 8.703125 -3.550781 8.503906 -2.753906 8.109375 -2.078125 C 7.710938 -1.410156 7.15625 -0.894531 6.4375 -0.53125 C 5.71875 -0.175781 4.878906 0 3.921875 0 L 0.96875 0 L 0.96875 -9.015625 Z M 3.921875 -1.203125 C 4.972656 -1.203125 5.78125 -1.488281 6.34375 -2.0625 C 6.90625 -2.632812 7.1875 -3.4375 7.1875 -4.46875 C 7.1875 -5.519531 6.90625 -6.335938 6.34375 -6.921875 C 5.78125 -7.515625 4.972656 -7.8125 3.921875 -7.8125 L 2.453125 -7.8125 L 2.453125 -1.203125 Z M 3.921875 -1.203125 "/></g></g></g><g fill="#d4131a" fill-opacity="1"><g transform="translate(304.635414, 98.181429)"><g><path d="M 2.453125 -7.8125 L 2.453125 -5.171875 L 5.5625 -5.171875 L 5.5625 -3.96875 L 2.453125 -3.96875 L 2.453125 -1.203125 L 5.953125 -1.203125 L 5.953125 0 L 0.96875 0 L 0.96875 -9.03125 L 5.953125 -9.03125 L 5.953125 -7.8125 Z M 2.453125 -7.8125 "/></g></g></g></svg>